# xmcd CD database file
#
# Track frame offsets:
#	150
#	15521
#	31634
#	55892
#	70919
#	85757
#	99542
#	113213
#	133145
#	157485
#	176988
#	194078
#
# Disc length: 2860 seconds
#
# Revision: 0
# Processed by: cddbd v1.4PL0 Copyright (c) Steve Scherf et al.
# Submitted via: CDex 1.50beta10
#
DISCID=a90b2a0c
DTITLE=Jeffrery Little - Surrealistic Planet
DYEAR=2000
DGENRE=New Age
TTITLE0=amanda's lullaby
TTITLE1=blue star
TTITLE2=over the horizon
TTITLE3=fairy teardrop
TTITLE4=the circus
TTITLE5=island
TTITLE6=now and then
TTITLE7=northport
TTITLE8=peaceful evening
TTITLE9=undertow
TTITLE10=beneath the canopy
TTITLE11=earth's edge
EXTD=YEAR: 2000
EXTT0=
EXTT1=
EXTT2=
EXTT3=
EXTT4=
EXTT5=
EXTT6=
EXTT7=
EXTT8=
EXTT9=
EXTT10=
EXTT11=
PLAYORDER=
